<svg width="178" height="43" viewBox="0 0 178 43" fill="none" xmlns="http://www.w3.org/2000/svg">
<g clip-path="url(#clip0_2_220)">
<g clip-path="url(#clip1_2_220)">
<path d="M6.6897 10.0929L0.375244 11.4386L6.70118 13.2904C7.09466 13.4083 7.44942 13.6294 7.72854 13.9308C8.00766 14.2322 8.20097 14.6028 8.28842 15.0041L9.86415 22.5722L11.5664 15.1422C11.6662 14.7274 11.8793 14.3486 12.1819 14.048C12.4845 13.7474 12.8648 13.5368 13.2802 13.4399L19.6061 12.0022L13.0961 10.1734C12.7075 10.043 12.3608 9.81113 12.0918 9.50173C11.8229 9.19234 11.6415 8.81668 11.5664 8.41365L10.1172 1.12158L8.47246 8.36764C8.37125 8.79552 8.14955 9.18544 7.83359 9.4912C7.51764 9.79697 7.12067 10.0058 6.6897 10.0929Z" fill="#0075FF"/>
<path d="M15.6458 30.6071L9.99048 31.8123L15.6561 33.4708C16.0085 33.5764 16.3262 33.7744 16.5762 34.0443C16.8262 34.3143 16.9993 34.6462 17.0776 35.0056L18.4889 41.7837L20.0134 35.1292C20.1028 34.7578 20.2936 34.4185 20.5647 34.1493C20.8357 33.8801 21.1762 33.6915 21.5483 33.6047L27.2138 32.317L21.3834 30.6792C21.0354 30.5624 20.7248 30.3547 20.484 30.0776C20.2431 29.8005 20.0806 29.4641 20.0134 29.1031L18.7155 22.5723L17.2424 29.0619C17.1518 29.4451 16.9532 29.7943 16.6703 30.0682C16.3873 30.342 16.0318 30.529 15.6458 30.6071Z" fill="#0075FF"/>
<path d="M28.4682 14.8663L18.7939 16.9281L28.4858 19.7651C29.0886 19.9458 29.6321 20.2846 30.0598 20.7463C30.4874 21.208 30.7836 21.7758 30.9176 22.3907L33.3317 33.9857L35.9397 22.6022C36.0925 21.9668 36.419 21.3864 36.8827 20.9258C37.3463 20.4653 37.9289 20.1427 38.5653 19.9942L48.2571 17.7915L38.2833 14.9897C37.6879 14.7899 37.1567 14.4346 36.7446 13.9606C36.3326 13.4866 36.0547 12.9111 35.9397 12.2936L33.7194 1.12158L31.1995 12.2231C31.0445 12.8786 30.7048 13.476 30.2207 13.9445C29.7366 14.413 29.1285 14.7329 28.4682 14.8663Z" fill="#0075FF"/>
<path d="M56.5205 20.2955C56.5205 18.7552 56.8978 17.3327 57.6522 16.0282C58.4223 14.7236 59.4597 13.6941 60.7643 12.9397C62.0688 12.1695 63.4912 11.7844 65.0316 11.7844C66.6033 11.7844 68.0572 12.1931 69.3932 13.0104C70.7291 13.812 71.7586 14.8808 72.4816 16.2168L69.7704 17.6549C69.2989 16.8219 68.6387 16.1539 67.79 15.6509C66.9412 15.1323 66.0218 14.8729 65.0316 14.8729C64.0571 14.8729 63.1455 15.1166 62.2967 15.6038C61.4637 16.091 60.8035 16.7512 60.3163 17.5842C59.8291 18.4172 59.5854 19.321 59.5854 20.2955C59.5854 21.27 59.8291 22.1737 60.3163 23.0067C60.8035 23.8398 61.4637 24.4999 62.2967 24.9871C63.1455 25.4744 64.0571 25.718 65.0316 25.718C66.0532 25.718 66.9805 25.4587 67.8136 24.94C68.6623 24.4213 69.3224 23.7297 69.794 22.8653L72.5052 24.3506C71.7822 25.7023 70.7527 26.7868 69.4167 27.6041C68.0807 28.4057 66.619 28.8065 65.0316 28.8065C63.4912 28.8065 62.0688 28.4293 60.7643 27.6748C59.4597 26.9047 58.4223 25.8673 57.6522 24.5628C56.8978 23.2582 56.5205 21.8358 56.5205 20.2955ZM77.6701 25.1757C77.6701 25.4272 77.7329 25.608 77.8587 25.718C77.9844 25.828 78.1809 25.883 78.4481 25.883C78.6524 25.883 78.896 25.8595 79.179 25.8123V28.5C78.5974 28.5943 78.0552 28.6415 77.5522 28.6415C76.6406 28.6415 75.9412 28.4057 75.4539 27.9342C74.9824 27.4469 74.7466 26.5903 74.7466 25.3644V11.9966H77.6701V25.1757ZM86.3653 16.4054C87.497 16.4054 88.5107 16.6883 89.4066 17.2541C90.3182 17.8042 91.0255 18.5508 91.5285 19.4939C92.0314 20.4369 92.2829 21.4821 92.2829 22.6295C92.2829 23.0067 92.2515 23.3525 92.1886 23.6669H83.0882C83.324 24.4999 83.7405 25.1522 84.3377 25.6237C84.935 26.0795 85.6973 26.3074 86.6246 26.3074C87.1905 26.3074 87.7327 26.1817 88.2514 25.9302C88.7858 25.6787 89.1866 25.3565 89.4538 24.9636L91.6935 26.2838C91.1434 27.1011 90.4283 27.7298 89.5481 28.1699C88.6836 28.5943 87.6856 28.8065 86.5539 28.8065C85.2965 28.8065 84.1806 28.5393 83.2061 28.0049C82.2316 27.4705 81.4771 26.7318 80.9428 25.7887C80.4241 24.8457 80.1647 23.7848 80.1647 22.6059C80.1647 21.4428 80.4241 20.3898 80.9428 19.4467C81.4771 18.5037 82.2159 17.765 83.1589 17.2306C84.102 16.6804 85.1708 16.4054 86.3653 16.4054ZM89.5481 21.38C89.4223 20.6255 89.0687 20.0361 88.4872 19.6118C87.9213 19.1717 87.2062 18.9516 86.3417 18.9516C85.7445 18.9516 85.1943 19.0616 84.6914 19.2817C84.2041 19.5017 83.8112 19.8004 83.5126 20.1776C83.2139 20.5548 83.0568 20.9556 83.041 21.38H89.5481ZM103.374 16.7119H106.298V28.5H103.374V27.3448C102.824 27.8163 102.219 28.1857 101.559 28.4528C100.915 28.7043 100.231 28.8301 99.5079 28.8301C98.3134 28.8301 97.2682 28.5629 96.3723 28.0285C95.4764 27.4941 94.7848 26.7554 94.2976 25.8123C93.8261 24.8693 93.5903 23.8083 93.5903 22.6295C93.5903 21.4507 93.8261 20.3898 94.2976 19.4467C94.7848 18.5037 95.4764 17.765 96.3723 17.2306C97.2682 16.6804 98.3134 16.4054 99.5079 16.4054C100.231 16.4054 100.915 16.539 101.559 16.8062C102.219 17.0577 102.824 17.4192 103.374 17.8907V16.7119ZM99.8852 26.0245C100.53 26.0245 101.111 25.883 101.63 25.6001C102.164 25.3015 102.581 24.8928 102.879 24.3742C103.194 23.8555 103.351 23.2661 103.351 22.6059C103.351 21.6157 103.013 20.8063 102.337 20.1776C101.677 19.5489 100.86 19.2345 99.8852 19.2345C98.895 19.2345 98.0777 19.5567 97.4332 20.2012C96.8045 20.8299 96.4902 21.6393 96.4902 22.6295C96.4902 23.6197 96.8045 24.437 97.4332 25.0814C98.0777 25.7101 98.895 26.0245 99.8852 26.0245ZM115.294 16.4054C115.985 16.4054 116.685 16.5547 117.392 16.8533C118.115 17.1363 118.728 17.6549 119.231 18.4094C119.749 19.1638 120.009 20.1776 120.009 21.4507V28.5H117.085V21.4507C117.085 20.5705 116.834 19.9418 116.331 19.5646C115.844 19.1717 115.27 18.9752 114.61 18.9752C113.95 18.9752 113.384 19.211 112.912 19.6825C112.457 20.1383 112.229 20.877 112.229 21.8987V28.5H109.305V16.7119H112.229V17.7021C112.653 17.3091 113.125 16.9948 113.643 16.759C114.162 16.5233 114.712 16.4054 115.294 16.4054ZM123.845 14.7551C123.295 14.7551 122.863 14.6057 122.549 14.3071C122.234 14.0085 122.077 13.5998 122.077 13.0811C122.077 12.5467 122.234 12.1302 122.549 11.8316C122.863 11.533 123.295 11.3836 123.845 11.3836C124.396 11.3836 124.828 11.533 125.142 11.8316C125.456 12.1302 125.614 12.5467 125.614 13.0811C125.614 13.5841 125.449 13.9928 125.119 14.3071C124.804 14.6057 124.38 14.7551 123.845 14.7551ZM122.36 28.5V16.7119H125.284V28.5H122.36ZM134.196 16.4054C134.888 16.4054 135.587 16.5547 136.294 16.8533C137.017 17.1363 137.63 17.6549 138.133 18.4094C138.652 19.1638 138.911 20.1776 138.911 21.4507V28.5H135.988V21.4507C135.988 20.5705 135.736 19.9418 135.233 19.5646C134.746 19.1717 134.172 18.9752 133.512 18.9752C132.852 18.9752 132.286 19.211 131.815 19.6825C131.359 20.1383 131.131 20.877 131.131 21.8987V28.5H128.208V16.7119H131.131V17.7021C131.555 17.3091 132.027 16.9948 132.546 16.759C133.064 16.5233 133.614 16.4054 134.196 16.4054ZM150.504 16.7119H153.428V27.9106C153.428 29.0265 153.145 30.0089 152.579 30.8576C152.029 31.7064 151.259 32.3586 150.269 32.8145C149.278 33.286 148.17 33.5217 146.944 33.5217C145.577 33.5217 144.335 33.2545 143.219 32.7201C142.103 32.2015 141.318 31.5178 140.862 30.669L143.361 29.2309C143.597 29.6867 144.037 30.0639 144.681 30.3625C145.326 30.6769 146.104 30.834 147.015 30.834C148.021 30.834 148.854 30.559 149.514 30.0089C150.174 29.4745 150.504 28.7751 150.504 27.9106V27.3683C149.97 27.8399 149.373 28.2014 148.713 28.4528C148.053 28.7043 147.369 28.8301 146.662 28.8301C145.467 28.8301 144.422 28.5629 143.526 28.0285C142.63 27.4941 141.938 26.7554 141.451 25.8123C140.98 24.8693 140.744 23.8083 140.744 22.6295C140.744 21.4507 140.98 20.3898 141.451 19.4467C141.938 18.5037 142.63 17.765 143.526 17.2306C144.422 16.6804 145.467 16.4054 146.662 16.4054C147.369 16.4054 148.045 16.539 148.689 16.8062C149.349 17.0577 149.954 17.4113 150.504 17.8671V16.7119ZM147.039 26.0245C147.683 26.0245 148.265 25.883 148.783 25.6001C149.318 25.3015 149.734 24.8928 150.033 24.3742C150.347 23.8555 150.504 23.2661 150.504 22.6059C150.504 21.6157 150.167 20.8063 149.491 20.1776C148.831 19.5489 148.013 19.2345 147.039 19.2345C146.049 19.2345 145.231 19.5567 144.587 20.2012C143.958 20.8299 143.644 21.6393 143.644 22.6295C143.644 23.6197 143.958 24.437 144.587 25.0814C145.231 25.7101 146.049 26.0245 147.039 26.0245ZM171.072 20.2247L176.423 28.5H172.746L168.926 22.5824L165.107 28.5H161.429L166.781 20.2247L161.452 11.9966H165.13L168.926 17.8671L172.722 11.9966H176.4L171.072 20.2247Z" fill="#211F54"/>
</g>
</g>
<defs>
<clipPath id="clip0_2_220">
<rect width="178" height="42" fill="white" transform="translate(0 0.5)"/>
</clipPath>
<clipPath id="clip1_2_220">
<rect width="178" height="42" fill="white" transform="translate(0 0.5)"/>
</clipPath>
</defs>
</svg>
