<svg width="92" height="93" viewBox="0 0 92 93" fill="none" xmlns="http://www.w3.org/2000/svg">
<mask id="mask0_2_251" style="mask-type:luminance" maskUnits="userSpaceOnUse" x="10" y="6" width="72" height="73">
<path d="M82 6.94995H10V78.95H82V6.94995Z" fill="white"/>
</mask>
<g mask="url(#mask0_2_251)">
<g filter="url(#filter0_d_2_251)">
<path d="M46 78.45C65.6061 78.45 81.5 62.5561 81.5 42.95C81.5 23.3439 65.6061 7.44995 46 7.44995C26.3939 7.44995 10.5 23.3439 10.5 42.95C10.5 62.5561 26.3939 78.45 46 78.45Z" fill="white" stroke="#DCDDEB"/>
<path d="M57.0857 60.3344C57.0733 60.3344 57.0609 60.3344 57.0485 60.3344C51.1101 60.1399 44.153 54.3835 39.3596 49.587C34.56 44.7906 28.8035 37.8304 28.6183 31.9197C28.5504 29.8455 33.6402 26.1571 33.6926 26.12C35.0138 25.2003 36.4798 25.5274 37.0817 26.3608C37.4891 26.9256 41.3473 32.7715 41.767 33.4352C42.2022 34.1235 42.1374 35.1482 41.5942 36.176C41.2948 36.747 40.3009 38.494 39.8349 39.3089C40.338 40.0249 41.6683 41.7812 44.4153 44.5282C47.1654 47.2752 48.9186 48.6086 49.6377 49.1117C50.4526 48.6456 52.1996 47.6518 52.7706 47.3524C53.7829 46.8153 54.8015 46.7474 55.496 47.1734C56.2059 47.6086 62.0364 51.4853 62.5734 51.8587C63.0241 52.1767 63.3142 52.7199 63.3728 53.3526C63.4284 53.9915 63.2309 54.6675 62.8204 55.257C62.7864 55.3064 59.1413 60.3344 57.0857 60.3344Z" fill="#0075FF"/>
</g>
</g>
<defs>
<filter id="filter0_d_2_251" x="0" y="0.949951" width="92" height="92" filterUnits="userSpaceOnUse" color-interpolation-filters="sRGB">
<feFlood flood-opacity="0" result="BackgroundImageFix"/>
<feColorMatrix in="SourceAlpha" type="matrix" values="0 0 0 0 0 0 0 0 0 0 0 0 0 0 0 0 0 0 127 0" result="hardAlpha"/>
<feOffset dy="4"/>
<feGaussianBlur stdDeviation="5"/>
<feColorMatrix type="matrix" values="0 0 0 0 0.0784314 0 0 0 0 0.0784314 0 0 0 0 0.168627 0 0 0 0.04 0"/>
<feBlend mode="normal" in2="BackgroundImageFix" result="effect1_dropShadow_2_251"/>
<feBlend mode="normal" in="SourceGraphic" in2="effect1_dropShadow_2_251" result="shape"/>
</filter>
</defs>
</svg>
